<?xml version="1.0" encoding="UTF-8" standalone="no"?>
<!-- Created with Inkscape (http://www.inkscape.org/) -->

<svg
   width="512"
   height="512"
   viewBox="0 0 512 512"
   version="1.1"
   id="svg1"
   xml:space="preserve"
   inkscape:version="1.4.3 (0d15f75, 2025-12-25)"
   sodipodi:docname="lupa_header.svg"
   xmlns:inkscape="http://www.inkscape.org/namespaces/inkscape"
   xmlns:sodipodi="http://sodipodi.sourceforge.net/DTD/sodipodi-0.dtd"
   xmlns="http://www.w3.org/2000/svg"
   xmlns:svg="http://www.w3.org/2000/svg"><sodipodi:namedview
     id="namedview1"
     pagecolor="#505050"
     bordercolor="#eeeeee"
     borderopacity="1"
     inkscape:showpageshadow="0"
     inkscape:pageopacity="0"
     inkscape:pagecheckerboard="0"
     inkscape:deskcolor="#505050"
     inkscape:document-units="px"
     inkscape:zoom="1.4774812"
     inkscape:cx="275.1304"
     inkscape:cy="223.69151"
     inkscape:window-width="1920"
     inkscape:window-height="991"
     inkscape:window-x="-9"
     inkscape:window-y="-9"
     inkscape:window-maximized="1"
     inkscape:current-layer="layer1" /><defs
     id="defs1" /><g
     inkscape:label="Capa 1"
     inkscape:groupmode="layer"
     id="layer1"><g
       id="g9"
       style="fill:#ffffff;fill-opacity:1"><path
         id="path6"
         style="display:inline;fill:#ffffff;fill-opacity:1;fill-rule:nonzero;stroke:#ffffff;stroke-width:14.0901;stroke-linecap:round;stroke-linejoin:round;stroke-miterlimit:53.5;stroke-dashoffset:723;stroke-opacity:0;paint-order:stroke fill markers"
         d="M 240.25195 99.923828 A 139.84875 140.80594 0 0 0 100.40234 240.73047 A 139.84875 140.80594 0 0 0 240.25195 381.53711 A 139.84875 140.80594 0 0 0 380.10156 240.73047 A 139.84875 140.80594 0 0 0 240.25195 99.923828 z M 239.97266 148.39258 A 91.271217 91.281784 0 0 1 331.24414 239.67578 A 91.271217 91.281784 0 0 1 239.97266 330.95703 A 91.271217 91.281784 0 0 1 148.70117 239.67578 A 91.271217 91.281784 0 0 1 239.97266 148.39258 z " /><path
         style="fill:#ffffff;fill-opacity:1;fill-rule:nonzero;stroke:#ffffff;stroke-width:13.3342;stroke-linecap:round;stroke-linejoin:round;stroke-miterlimit:53.5;stroke-dashoffset:723;stroke-opacity:0;paint-order:stroke fill markers"
         d="m 354.15612,319.69769 52.16624,52.40553 c 0,0 14.73514,15.98266 -1.43577,32.54408 -16.9063,17.31457 -35.65491,-0.47859 -35.65491,-0.47859 l -52.64482,-52.64483 z"
         id="path8"
         sodipodi:nodetypes="ccsccc" /></g></g></svg>
