<?xml version="1.0" encoding="UTF-8" standalone="no"?>
<!-- Created with Inkscape (http://www.inkscape.org/) -->

<svg
   width="241.95514"
   height="225.24097"
   viewBox="0 0 241.95514 225.24097"
   version="1.1"
   id="svg1"
   xml:space="preserve"
   sodipodi:docname="LogoKickData.svg"
   inkscape:version="1.4.3 (0d15f75, 2025-12-25)"
   inkscape:export-filename="C:\Users\wilsa\OneDrive - UCompensar\Proyectos Universidad\Introducción a la web\Proyecto1KickData\KickData\Assets\Imagenes\header\LogoKickData.svg"
   inkscape:export-xdpi="256.82022"
   inkscape:export-ydpi="256.82022"
   xmlns:inkscape="http://www.inkscape.org/namespaces/inkscape"
   xmlns:sodipodi="http://sodipodi.sourceforge.net/DTD/sodipodi-0.dtd"
   xmlns:xlink="http://www.w3.org/1999/xlink"
   xmlns="http://www.w3.org/2000/svg"
   xmlns:svg="http://www.w3.org/2000/svg"><sodipodi:namedview
     id="namedview1"
     pagecolor="#505050"
     bordercolor="#eeeeee"
     borderopacity="1"
     inkscape:showpageshadow="0"
     inkscape:pageopacity="0"
     inkscape:pagecheckerboard="0"
     inkscape:deskcolor="#505050"
     inkscape:document-units="px"
     inkscape:zoom="1"
     inkscape:cx="861.5"
     inkscape:cy="351"
     inkscape:window-width="1920"
     inkscape:window-height="1053"
     inkscape:window-x="-9"
     inkscape:window-y="-9"
     inkscape:window-maximized="1"
     inkscape:current-layer="layer1"><inkscape:page
       x="0"
       y="0"
       width="241.95514"
       height="225.24097"
       id="page2"
       margin="0"
       bleed="0" /></sodipodi:namedview><defs
     id="defs1"><linearGradient
       id="linearGradient36"
       inkscape:collect="always"><stop
         style="stop-color:#ffffff;stop-opacity:1;"
         offset="0"
         id="stop35" /><stop
         style="stop-color:#93989c;stop-opacity:1;"
         offset="0.45251447"
         id="stop37" /><stop
         style="stop-color:#283139;stop-opacity:1;"
         offset="1"
         id="stop36" /></linearGradient><linearGradient
       id="linearGradient34"
       inkscape:collect="always"><stop
         style="stop-color:#2c343c;stop-opacity:1;"
         offset="0"
         id="stop32" /><stop
         style="stop-color:#8d959e;stop-opacity:0.98431373;"
         offset="0.0001"
         id="stop33" /><stop
         style="stop-color:#2c343c;stop-opacity:1;"
         offset="1"
         id="stop34" /></linearGradient><linearGradient
       id="linearGradient31"
       inkscape:collect="always"><stop
         style="stop-color:#2c343c;stop-opacity:1;"
         offset="0"
         id="stop29" /><stop
         style="stop-color:#8d959e;stop-opacity:0.98431373;"
         offset="0.00000001"
         id="stop30" /><stop
         style="stop-color:#2c343c;stop-opacity:1;"
         offset="1"
         id="stop31" /></linearGradient><linearGradient
       id="linearGradient27"
       inkscape:collect="always"><stop
         style="stop-color:#2c343c;stop-opacity:1;"
         offset="0"
         id="stop26" /><stop
         style="stop-color:#8d959e;stop-opacity:0.98431373;"
         offset="0.00009997"
         id="stop28" /><stop
         style="stop-color:#2c343c;stop-opacity:1;"
         offset="1"
         id="stop27" /></linearGradient><linearGradient
       id="linearGradient24"
       inkscape:collect="always"><stop
         style="stop-color:#2c343c;stop-opacity:1;"
         offset="0"
         id="stop25" /><stop
         style="stop-color:#8d959e;stop-opacity:0.98431373;"
         offset="1"
         id="stop24" /></linearGradient><linearGradient
       id="linearGradient14"
       inkscape:collect="always"><stop
         style="stop-color:#ffffff;stop-opacity:1;"
         offset="0"
         id="stop14" /><stop
         style="stop-color:#000000;stop-opacity:1;"
         offset="1"
         id="stop15" /></linearGradient><linearGradient
       id="linearGradient11"
       inkscape:collect="always"><stop
         style="stop-color:#ffffff;stop-opacity:1;"
         offset="0"
         id="stop11" /><stop
         style="stop-color:#000000;stop-opacity:1;"
         offset="1"
         id="stop12" /></linearGradient><linearGradient
       id="linearGradient6"
       inkscape:collect="always"><stop
         style="stop-color:#ffffff;stop-opacity:1;"
         offset="0"
         id="stop6" /><stop
         style="stop-color:#283139;stop-opacity:1;"
         offset="1"
         id="stop7" /></linearGradient><linearGradient
       id="linearGradient2"
       inkscape:collect="always"><stop
         style="stop-color:#010304;stop-opacity:1;"
         offset="0"
         id="stop3" /><stop
         style="stop-color:#69717c;stop-opacity:1;"
         offset="1"
         id="stop2" /></linearGradient><linearGradient
       inkscape:collect="always"
       xlink:href="#linearGradient2"
       id="linearGradient3"
       x1="269.86581"
       y1="268.11786"
       x2="339.41257"
       y2="242.50845"
       gradientUnits="userSpaceOnUse" /><linearGradient
       inkscape:collect="always"
       xlink:href="#linearGradient2"
       id="linearGradient4"
       gradientUnits="userSpaceOnUse"
       x1="263.61902"
       y1="291.83688"
       x2="299.66095"
       y2="215.03108"
       gradientTransform="matrix(0.613267,-0.40015597,0.39716916,0.59305964,160.35338,235.40441)" /><linearGradient
       inkscape:collect="always"
       xlink:href="#linearGradient2"
       id="linearGradient5"
       gradientUnits="userSpaceOnUse"
       x1="300.13916"
       y1="264.75891"
       x2="165.18546"
       y2="181.99525"
       gradientTransform="matrix(0.49268647,0.56995186,-0.54976282,0.48684976,369.04594,79.722386)" /><linearGradient
       inkscape:collect="always"
       xlink:href="#linearGradient36"
       id="linearGradient7"
       x1="395.57736"
       y1="309.98923"
       x2="439.01596"
       y2="356.34637"
       gradientUnits="userSpaceOnUse" /><linearGradient
       inkscape:collect="always"
       xlink:href="#linearGradient6"
       id="linearGradient8"
       gradientUnits="userSpaceOnUse"
       x1="343.82736"
       y1="263.48923"
       x2="372.01596"
       y2="318.84637"
       gradientTransform="translate(62.160751,36.200724)" /><linearGradient
       inkscape:collect="always"
       xlink:href="#linearGradient11"
       id="linearGradient12"
       x1="397.98895"
       y1="227.68535"
       x2="463.93555"
       y2="206.64894"
       gradientUnits="userSpaceOnUse" /><linearGradient
       inkscape:collect="always"
       xlink:href="#linearGradient2"
       id="linearGradient13"
       gradientUnits="userSpaceOnUse"
       x1="295.03244"
       y1="245.30727"
       x2="325.77344"
       y2="305.94775"
       gradientTransform="matrix(0.58576223,0.80697313,-0.77969243,0.58033155,395.56409,-212.82607)" /><linearGradient
       inkscape:collect="always"
       xlink:href="#linearGradient14"
       id="linearGradient15"
       x1="310.52267"
       y1="203.44637"
       x2="463.17438"
       y2="190.43626"
       gradientUnits="userSpaceOnUse" /><linearGradient
       inkscape:collect="always"
       xlink:href="#linearGradient6"
       id="linearGradient16"
       gradientUnits="userSpaceOnUse"
       x1="414.8157"
       y1="336.70154"
       x2="332.37979"
       y2="271.17377"
       gradientTransform="translate(-70.2938,-105.86091)" /><linearGradient
       inkscape:collect="always"
       xlink:href="#linearGradient2"
       id="linearGradient17"
       gradientUnits="userSpaceOnUse"
       x1="330.26782"
       y1="285.46048"
       x2="316.39536"
       y2="215.26971"
       gradientTransform="matrix(0.57687908,0.81334712,-0.78600851,0.57174785,265.73168,-181.62914)" /><linearGradient
       inkscape:collect="always"
       xlink:href="#linearGradient6"
       id="linearGradient18"
       gradientUnits="userSpaceOnUse"
       gradientTransform="translate(-94.252291,-159.66993)"
       x1="412.87115"
       y1="373.82465"
       x2="389.12512"
       y2="334.6366" /><linearGradient
       inkscape:collect="always"
       xlink:href="#linearGradient6"
       id="linearGradient19"
       gradientUnits="userSpaceOnUse"
       x1="368.26825"
       y1="307.39371"
       x2="432.55035"
       y2="365.72037"
       gradientTransform="matrix(-0.83542024,-0.54961169,-0.54961169,0.83542024,775.74819,231.8294)" /><linearGradient
       inkscape:collect="always"
       xlink:href="#linearGradient2"
       id="linearGradient20"
       gradientUnits="userSpaceOnUse"
       x1="269.86581"
       y1="268.11786"
       x2="548.50934"
       y2="187.4847"
       gradientTransform="matrix(-0.04673502,-0.49893931,0.48575122,-0.05137031,147.52333,502.04577)" /><linearGradient
       inkscape:collect="always"
       xlink:href="#linearGradient6"
       id="linearGradient21"
       gradientUnits="userSpaceOnUse"
       gradientTransform="matrix(-0.83542024,-0.54961169,-0.54961169,0.83542024,821.03692,298.37716)"
       x1="399.90948"
       y1="277.03821"
       x2="390.36719"
       y2="350.23792" /><linearGradient
       inkscape:collect="always"
       xlink:href="#linearGradient6"
       id="linearGradient22"
       gradientUnits="userSpaceOnUse"
       gradientTransform="matrix(-0.83542024,-0.54961169,-0.54961169,0.83542024,752.13564,226.68477)"
       x1="349.84665"
       y1="277.49982"
       x2="404.4129"
       y2="350.59473" /><linearGradient
       inkscape:collect="always"
       xlink:href="#linearGradient6"
       id="linearGradient23"
       gradientUnits="userSpaceOnUse"
       gradientTransform="matrix(-0.83542024,-0.54961169,-0.54961169,0.83542024,791.45728,357.40039)"
       x1="431.44275"
       y1="141.62115"
       x2="392.34888"
       y2="289.33063" /><linearGradient
       inkscape:collect="always"
       xlink:href="#linearGradient24"
       id="linearGradient25"
       x1="276.4288"
       y1="468.81183"
       x2="476.66861"
       y2="289.20673"
       gradientUnits="userSpaceOnUse" /><radialGradient
       inkscape:collect="always"
       xlink:href="#linearGradient27"
       id="radialGradient28"
       cx="229.46831"
       cy="445.10013"
       fx="229.46831"
       fy="445.10013"
       r="143.27261"
       gradientTransform="matrix(0.43329059,-0.16608887,0.09924296,0.2589038,85.868788,361.52523)"
       gradientUnits="userSpaceOnUse" /><radialGradient
       inkscape:collect="always"
       xlink:href="#linearGradient31"
       id="radialGradient28-1"
       cx="276.27487"
       cy="415.54193"
       fx="276.27487"
       fy="415.54193"
       r="143.27261"
       gradientTransform="matrix(0.43329059,-0.16608887,0.09924296,0.2589038,50.179251,350.38259)"
       gradientUnits="userSpaceOnUse" /><radialGradient
       inkscape:collect="always"
       xlink:href="#linearGradient34"
       id="radialGradient28-1-9"
       cx="293.92929"
       cy="386.76715"
       fx="293.92929"
       fy="386.76715"
       r="143.27261"
       gradientTransform="matrix(0.41055898,-0.21625811,0.12922056,0.245321,13.922819,335.22876)"
       gradientUnits="userSpaceOnUse" /></defs><g
     inkscape:label="Capa 1"
     inkscape:groupmode="layer"
     id="layer1"
     transform="translate(-224.16025,-172.05353)"><g
       id="g48"
       inkscape:label="Rayas"
       transform="translate(10)"
       style="display:none"><path
         id="rect23"
         style="display:inline;fill:url(#linearGradient25);fill-rule:evenodd;stroke:#000000;stroke-width:0.1;stroke-linecap:round;stroke-linejoin:round;stroke-miterlimit:53.5;stroke-dasharray:none;stroke-dashoffset:723"
         d="m 394.6918,400.14616 c 96.38127,-48.75004 68.28636,-133.56691 68.28636,-133.56691 0,0 56.56082,120.79902 -97.94885,174.63635 -129.18524,45.01329 -244.82116,51.63782 -244.82116,51.63782 0,0 167.62349,-38.65696 274.48365,-92.70726 z"
         sodipodi:nodetypes="scscs" /><path
         id="rect23-6"
         style="display:inline;fill:url(#radialGradient28);fill-rule:evenodd;stroke:#000000;stroke-width:0.1;stroke-linecap:round;stroke-linejoin:round;stroke-miterlimit:53.5;stroke-dasharray:none;stroke-dashoffset:723"
         d="m 282.46123,407.94994 c 8.10265,-4.53188 15.52461,-10.43947 18.20757,-12.56087 7.87653,-7.07895 18.78995,-0.42414 34.13882,1.1729 4.2203,-0.83124 18.27774,-1.56722 17.33166,-0.75738 -16.37335,14.01552 -46.07677,30.136 -54.39663,33.03497 -138.02408,51.37725 -232.003143,50.61269 -232.003143,50.61269 0,0 150.329923,-34.36884 216.721723,-71.50231 z"
         sodipodi:nodetypes="sccsccs" /><path
         id="rect23-6-3"
         style="display:inline;fill:url(#radialGradient28-1);fill-rule:evenodd;stroke:#000000;stroke-width:0.1;stroke-linecap:round;stroke-linejoin:round;stroke-miterlimit:53.5;stroke-dasharray:none;stroke-dashoffset:723"
         d="m 234.75087,383.54905 c 7.74569,-5.11812 15.52461,-10.43947 18.20757,-12.56087 7.87653,-7.07895 18.78995,-0.42414 34.13882,1.1729 4.2203,-0.83124 18.27774,-1.56722 17.33166,-0.75738 -16.37335,14.01552 -46.07677,30.136 -54.39663,33.03497 -136.07953,57.0341 -218.214552,64.57805 -218.214552,64.57805 0,0 133.359352,-39.49537 202.933132,-85.46767 z"
         sodipodi:nodetypes="sccsccs" /><path
         id="rect23-6-3-6"
         style="display:inline;fill:url(#radialGradient28-1-9);fill-rule:evenodd;stroke:#000000;stroke-width:0.1;stroke-linecap:round;stroke-linejoin:round;stroke-miterlimit:53.5;stroke-dasharray:none;stroke-dashoffset:723"
         d="m 200.62403,345.16727 c 7.30554,-5.72887 17.67831,-14.83039 20.09101,-17.25474 6.98229,-7.96235 15.60734,1.10248 31.03731,0.86963 4.09208,-1.32543 17.96329,-3.72185 17.11983,-2.80562 -14.59735,15.85682 -36.58981,35.8531 -47.15922,41.83876 -142.988145,83.38097 -226.9969087,84.49646 -226.9969087,84.49646 0,0 117.8964187,-38.12746 205.9079787,-107.14449 z"
         sodipodi:nodetypes="sccsccs" /></g><g
       id="g23"
       inkscape:label="Balón"
       transform="translate(10)"
       inkscape:export-filename="C:\Users\wilsa\OneDrive - UCompensar\Proyectos Universidad\Introducción a la web\Proyecto1KickData\KickData\Assets\Imagenes\header\LogoKickData.svg"
       inkscape:export-xdpi="256.82022"
       inkscape:export-ydpi="256.82022"
       style="display:inline"><path
         id="path3-1-3"
         style="display:inline;fill:url(#linearGradient12);fill-rule:evenodd;stroke:#000000;stroke-width:0.702;stroke-linecap:round;stroke-linejoin:round;stroke-miterlimit:53.5;stroke-dasharray:none;stroke-dashoffset:723"
         inkscape:transform-center-x="4.2539705"
         inkscape:transform-center-y="1.2971834"
         d="m 451.09671,259.94542 c -1.23059,0.40884 -21.58206,-15.59252 -23.03406,-18.22482 -3.77474,-6.84317 -18.11151,-27.95134 -26.19829,-37.78823 5.77686,0.52369 11.06596,-4.81561 11.86421,-4.10668 11.535,10.24444 20.82883,19.41538 27.82964,31.57282 5.00657,8.6943 12.9575,27.41115 9.5385,28.54691 z"
         sodipodi:nodetypes="sscsas" /><path
         id="path3"
         style="display:inline;fill:url(#linearGradient15);fill-rule:evenodd;stroke:#000000;stroke-width:1.05975;stroke-linecap:round;stroke-linejoin:round;stroke-miterlimit:53.5;stroke-dasharray:none;stroke-dashoffset:723"
         inkscape:transform-center-x="-1.2239142"
         inkscape:transform-center-y="2.2973444"
         transform="matrix(0.65144933,-0.25700219,0.32469394,0.54548757,131.66932,204.63779)"
         d="m 340.25745,226.19996 c -1.07109,2.41127 -33.98568,44.33538 -36.04291,44.24863 -2.81639,-0.11877 -40.36519,-17.27403 -47.36626,-20.20155 -17.11729,-7.15767 -16.4177,-64.67368 -10.33895,-70.48906 4.89818,-4.68596 37.97517,-48.14798 39.67246,-48.91735 1.68946,-0.76583 47.31646,22.89853 49.89666,26.04964 3.01711,3.68472 7.15482,62.61041 4.179,69.30969 z"
         sodipodi:nodetypes="sssssss" /><path
         id="path3-1"
         style="display:inline;fill:url(#linearGradient7);fill-rule:evenodd;stroke:#000000;stroke-width:0.70206;stroke-linecap:round;stroke-linejoin:round;stroke-miterlimit:53.5;stroke-dasharray:none;stroke-dashoffset:723"
         inkscape:transform-center-x="2.8189953"
         inkscape:transform-center-y="-2.1248708"
         d="m 363.5805,348.74147 c -1.29425,-1.0551 -9.88555,-34.08252 -9.40629,-35.63959 0.65612,-2.13168 16.70541,-33.33271 19.99046,-38.36989 12.1744,0.20848 37.18821,0.0408 44.93855,-0.77005 3.42069,6.64021 12.96102,32.64772 12.74183,34.00492 -3.16735,19.6121 -19.55804,42.57405 -31.36447,44.3084 -3.47813,0.51093 -33.30433,-0.60231 -36.90008,-3.53379 z"
         sodipodi:nodetypes="ssccsss" /><path
         id="path3-1-91"
         style="display:inline;fill:url(#linearGradient19);fill-rule:evenodd;stroke:#000000;stroke-width:0.70206;stroke-linecap:round;stroke-linejoin:round;stroke-miterlimit:53.5;stroke-dasharray:none;stroke-dashoffset:723"
         inkscape:transform-center-x="-4.4071839"
         inkscape:transform-center-y="-0.83430353"
         d="m 276.17903,322.72826 c 1.66115,-0.17011 28.67012,-22.86322 29.12552,-24.42744 0.62347,-2.14146 -2.61867,-42.24322 -2.59457,-48.25688 -10.99243,-6.42864 -26.22884,-12.8036 -32.25798,-17.74068 -6.50725,3.66731 -28.306,23.48267 -28.80396,24.76409 -1.23869,3.18754 -3.98776,29.76208 2.99914,48.15562 0.72798,1.91645 26.91672,17.97805 31.53185,17.50529 z"
         sodipodi:nodetypes="ssccsss" /><path
         id="path3-1-91-6"
         style="display:inline;fill:url(#linearGradient22);fill-rule:evenodd;stroke:#000000;stroke-width:0.70206;stroke-linecap:round;stroke-linejoin:round;stroke-miterlimit:53.5;stroke-dasharray:none;stroke-dashoffset:723"
         inkscape:transform-center-x="-4.4071839"
         inkscape:transform-center-y="-0.83430353"
         d="m 232.7488,343.06276 c 1.66115,-0.17011 12.44595,-35.43582 11.99687,-37.00187 -7.50826,-26.18309 -3.85611,-42.41999 -3.1249,-48.61043 -10.99243,-6.42864 11.24782,-25.35475 5.21868,-30.29183 -6.50725,3.66731 -23.57163,14.6233 -24.06959,15.90472 -1.23869,3.18754 -11.4776,23.88123 -7.23523,57.01499 1.96018,15.30943 12.59904,43.45718 17.21417,42.98442 z"
         sodipodi:nodetypes="ssccsss" /><path
         id="path3-1-91-2"
         style="display:inline;fill:url(#linearGradient21);fill-rule:evenodd;stroke:#000000;stroke-width:0.70206;stroke-linecap:round;stroke-linejoin:round;stroke-miterlimit:53.5;stroke-dasharray:none;stroke-dashoffset:723"
         inkscape:transform-center-x="-4.4071839"
         inkscape:transform-center-y="-0.83430353"
         d="m 330.71776,375.77602 c 1.66816,0.0748 32.04512,-24.73822 32.50052,-26.30244 0.62347,-2.14146 -8.49367,-30.11822 -8.46957,-36.13188 -10.99243,-6.42864 -43.47884,-9.4286 -49.50798,-14.36568 -6.50725,3.66731 -28.306,23.10767 -28.80396,24.38909 -1.23869,3.18754 3.17443,33.26123 4.62414,34.28062 11.921,8.38243 29.54172,17.22805 49.65685,18.13029 z"
         sodipodi:nodetypes="ssccsss" /><path
         id="path3-1-91-2-4"
         style="display:inline;fill:url(#linearGradient23);fill-rule:evenodd;stroke:#000000;stroke-width:0.70206;stroke-linecap:round;stroke-linejoin:round;stroke-miterlimit:53.5;stroke-dasharray:none;stroke-dashoffset:723"
         inkscape:transform-center-x="-4.4071839"
         inkscape:transform-center-y="-0.83430353"
         d="m 301.6951,393.00673 c 26.30622,7.22976 62.05871,2.58894 62.51411,1.02472 0.62347,-2.14146 -33.76094,-12.11733 -33.73684,-18.13099 -14.52796,0.64243 -41.5343,-11.37314 -49.3312,-18.60832 -25.84691,14.3832 -27.52009,11.01315 -25.10476,12.82909 16.13176,12.1285 25.48547,17.34127 45.65869,22.8855 z"
         sodipodi:nodetypes="ssccss" /><path
         id="path3-1-8"
         style="display:inline;fill:url(#linearGradient16);fill-rule:evenodd;stroke:#000000;stroke-width:0.70206;stroke-linecap:round;stroke-linejoin:round;stroke-miterlimit:53.5;stroke-dasharray:none;stroke-dashoffset:723"
         inkscape:transform-center-x="2.8189953"
         inkscape:transform-center-y="-2.1248708"
         d="m 303.09781,250.21679 c -1.29425,-1.0551 -31.24844,-15.70508 -31.6195,-17.29142 -0.58131,-2.48524 5.86137,-29.4954 10.1187,-35.06291 17.83125,-9.51424 43.72894,-11.98002 51.47928,-12.79087 3.42069,6.64021 27.83684,15.70806 27.47496,17.03436 -0.91735,3.3621 -7.73279,34.30225 -9.5393,34.7863 -3.39567,0.90987 -44.31839,16.25602 -47.91414,13.32454 z"
         sodipodi:nodetypes="ssccsss" /><path
         id="path3-1-8-4"
         style="display:inline;fill:url(#linearGradient18);fill-rule:evenodd;stroke:#000000;stroke-width:0.70206;stroke-linecap:round;stroke-linejoin:round;stroke-miterlimit:53.5;stroke-dasharray:none;stroke-dashoffset:723"
         inkscape:transform-center-x="2.8189953"
         inkscape:transform-center-y="-2.1248708"
         d="m 280.33256,198.4407 c -1.21738,-1.14293 -29.30044,9.19029 -29.6715,7.60395 -0.58131,-2.48524 15.35927,-13.61669 21.8386,-17.23363 12.42965,-6.93858 26.91045,-12.23229 41.29362,-14.96634 7.87444,-1.49683 24.3988,-1.99905 24.03692,-0.67275 -0.91735,3.3621 -3.61684,11.89554 -5.47344,12.12101 -25.67689,3.11828 -25.93361,3.17454 -52.0242,13.14776 z"
         sodipodi:nodetypes="cssassc" /><path
         id="path3-1-9"
         style="display:inline;fill:url(#linearGradient8);fill-rule:evenodd;stroke:#000000;stroke-width:0.70206;stroke-linecap:round;stroke-linejoin:round;stroke-miterlimit:53.5;stroke-dasharray:none;stroke-dashoffset:723"
         inkscape:transform-center-x="2.8189953"
         inkscape:transform-center-y="-2.1248708"
         d="m 401.39687,378.56487 c -7.32972,4.377 -2.5668,-25.01914 -1.06191,-25.64322 19.6085,-8.13168 29.65779,-34.18986 31.32379,-44.46513 10.96222,-5.85244 21.50111,-14.43077 22.45602,-14.35333 2.95867,0.23993 -1.22979,13.43321 -2.844,19.95546 -1.34113,5.41884 -3.39518,10.51929 -5.64286,15.76771 -3.4478,8.05073 -8.21579,15.63203 -13.89514,22.29886 -8.69845,10.21086 -17.20753,18.59995 -30.3359,26.43965 z"
         sodipodi:nodetypes="sscsasas" /><path
         id="path2"
         style="display:inline;fill:url(#linearGradient3);fill-rule:evenodd;stroke:#000000;stroke-width:2.03161;stroke-linecap:round;stroke-linejoin:round;stroke-miterlimit:53.5;stroke-dasharray:none;stroke-dashoffset:723;stroke-opacity:1;paint-order:normal"
         d="m 339.53764,241.71516 c 0.47308,1.39441 -7.52343,45.81766 -9.94859,47.95634 -1.91848,1.69185 -46.19036,4.73374 -47.54719,3.68485 -3.23951,-2.50431 -20.6608,-44.62495 -19.29981,-47.78419 1.01946,-2.36645 32.4193,-33.46954 36.01307,-33.55213 6.18318,-0.1421 40.13259,27.77952 40.78252,29.69513 z"
         sodipodi:nodetypes="ssssss"
         transform="matrix(0.6363257,-0.76773213,0.75569999,0.61124669,-46.850453,349.71398)" /><path
         id="path2-7"
         style="display:inline;fill:url(#linearGradient20);fill-rule:evenodd;stroke:#000000;stroke-width:2;stroke-linecap:round;stroke-linejoin:round;stroke-miterlimit:53.5;stroke-dasharray:none;stroke-dashoffset:723;stroke-opacity:1;paint-order:normal"
         d="m 244.13411,305.88931 c 0.65523,-0.30768 30.35759,16.07684 31.50979,17.17698 0.91147,0.87032 5.44319,33.50559 4.9971,34.23645 -1.06508,1.74496 -22.69977,12.33573 -24.29799,11.81896 -0.6041,-0.19533 -9.75121,-8.42997 -14.00652,-13.24472 -3.91424,-4.42883 -10.40439,-13.39725 -10.50746,-14.28341 -0.35797,-3.07774 11.40493,-35.28158 12.30508,-35.70426 z"
         sodipodi:nodetypes="ssssass" /><path
         id="path2-6"
         style="display:inline;fill:url(#linearGradient17);fill-rule:evenodd;stroke:#000000;stroke-width:2;stroke-linecap:round;stroke-linejoin:round;stroke-miterlimit:53.5;stroke-dasharray:none;stroke-dashoffset:723;stroke-opacity:1;paint-order:normal"
         d="m 270.72978,232.73294 c -5.92671,6.20609 -22.94067,20.69571 -29.02591,24.10025 -10.85052,-7.34928 -18.4346,-11.52777 -18.39289,-13.23105 0.0614,-2.50733 8.25055,-16.50234 17.15114,-27.68206 5.53534,-6.95274 12.15071,-12.70164 14.80584,-14.27155 7.49307,-4.43044 26.46421,-6.37403 25.08697,-3.06577 -2.68532,6.45042 -9.26539,30.89645 -9.62515,34.15018 z"
         sodipodi:nodetypes="ccssscc" /><path
         id="path2-0"
         style="display:inline;fill:url(#linearGradient13);fill-rule:evenodd;stroke:#000000;stroke-width:2;stroke-linecap:round;stroke-linejoin:round;stroke-miterlimit:53.5;stroke-dasharray:none;stroke-dashoffset:723;stroke-opacity:1;paint-order:normal"
         d="m 360.54947,202.26754 c -2.44289,-0.56638 -28.52667,-15.54584 -28.50364,-17.24947 0.055,-4.06752 1.47821,-11.04551 4.73867,-11.78062 0.91834,-0.20706 21.86538,0.14732 41.4351,7.16203 21.23964,7.6133 31.42176,16.72505 34.92561,19.74299 -5.69035,2.89705 -7.71995,3.65771 -10.30507,4.54136 -4.52374,-0.46131 -27.6397,-0.7469 -42.29067,-2.41629 z"
         sodipodi:nodetypes="ssssccs" /><path
         id="path2-42"
         style="display:inline;fill:url(#linearGradient5);fill-rule:evenodd;stroke:#000000;stroke-width:2;stroke-linecap:round;stroke-linejoin:round;stroke-miterlimit:53.5;stroke-dasharray:none;stroke-dashoffset:723;stroke-opacity:1;paint-order:normal"
         d="m 401.82003,377.71359 c -11.41516,7.13986 -21.57214,11.06437 -34.83114,15.21851 -11.3549,3.55757 -37.28669,-16.02372 -36.45629,-17.00731 2.47444,-2.9309 30.54895,-26.13296 32.95633,-26.89534 11.9048,2.05534 29.39851,2.84614 36.40316,3.64325 1.81256,5.03919 2.02112,23.33376 1.92794,25.04089 z"
         sodipodi:nodetypes="cssccc" /><path
         id="path2-4"
         style="display:inline;fill:url(#linearGradient4);fill-rule:evenodd;stroke:#000000;stroke-width:2;stroke-linecap:round;stroke-linejoin:round;stroke-miterlimit:53.5;stroke-dasharray:none;stroke-dashoffset:723;stroke-opacity:1;paint-order:normal"
         d="m 448.94267,253.32276 c 5.10177,7.23698 5.52858,17.04685 5.93467,25.89202 0.38122,8.30363 0.78399,17.88857 -3.32071,24.71503 -5.13799,3.17709 -14.70813,3.23108 -19.68807,4.03797 -2.34365,-5.83524 -12.96909,-31.63063 -13.38921,-34.04886 -0.31468,-1.81139 6.94948,-34.42788 8.24545,-34.77514 1.29597,-0.34726 17.1558,6.99832 22.21787,14.17898 z"
         sodipodi:nodetypes="aaccsza" /></g></g></svg>
